# xmcd
#
# Track frame offsets:
#	150
#	15382
#	30237
#	47092
#	62980
#	82155
#	92875
#	105590
#	118545
#	133600
#	147787
#	167595
#	185860
#	198812
#	211722
#	222655
#	237587
#	255034
#	270075
#	281352
#
# Disc length: 3897 seconds
#
# Revision: 1
# Processed by: cddbd v1.4b41PL1 Copyright (c) Steve Scherf et al.
# Submitted via: audiograbber 1.80
#
DISCID=130f3714
DTITLE=Various Artist - Country Pride Disc Two
DYEAR=1900
DGENRE=
TTITLE0=Willie Nelson - Living In The Promiseland
TTITLE1=Lacy J. Dalton - Working Class Man
TTITLE2=Ronnie Milsap - Smoky Mountain Man
TTITLE3=Johnny Cash and Marty Robbins - Song Of The Patriot
TTITLE4=Merle Haggard - Are The Good Times Really Over (I Wish A Buck Was Still
TTITLE4=Silver)
TTITLE5=Moe Bandy and Joe Stampley - Let's Hear It For The Working Man
TTITLE6=Johnny Horton - Johnny Freedom ("Freedomland")
TTITLE7=Johnny Paycheck - All-American Man
TTITLE8=Asleep At The Wheel - Boogie Back To Texas
TTITLE9=B.J. Thomas - America Is
TTITLE10=Moe Bandy - Americana
TTITLE11=Shenandoah - Sunday In The South
TTITLE12=Merle Haggard - The Fightin' Side Of Me
TTITLE13=Waylon Jennings - The Eagle
TTITLE14=Freddie Weller - The Promised Land
TTITLE15=Merle Haggard - Amber Waves Of Grain
TTITLE16=Ricky Skaggs - Country Boy
TTITLE17=The Charlie Daniels Band - In America
TTITLE18=SSGT. Barry Sadler - The Ballard Of The Green Berets
TTITLE19=Charlie Rich - America, The Beautiful (1976)
EXTD=
EXTT0=
EXTT1=
EXTT2=
EXTT3=
EXTT4=
EXTT5=
EXTT6=
EXTT7=
EXTT8=
EXTT9=
EXTT10=
EXTT11=
EXTT12=
EXTT13=
EXTT14=
EXTT15=
EXTT16=
EXTT17=
EXTT18=
EXTT19=
PLAYORDER=
